<mxfile host="app.diagrams.net" modified="2023-10-28T14:11:44.107Z" agent="Mozilla/5.0 (Windows NT 10.0; Win64; x64) AppleWebKit/537.36 (KHTML, like Gecko) Chrome/118.0.0.0 Safari/537.36 Edg/118.0.2088.69" version="22.0.8" etag="L7FGzndCWcfrfFarir4o" type="github">
  <diagram name="第 1 页" id="yWCppMZFHAaxPfoO_EQy">
    <mxGraphModel>
      <root>
        <mxCell id="0" />
        <mxCell id="1" parent="0" />
      </root>
    </mxGraphModel>
  </diagram>
</mxfile>
